<mxfile host="Electron" modified="2024-06-09T18:44:28.197Z" agent="Mozilla/5.0 (Windows NT 10.0; Win64; x64) AppleWebKit/537.36 (KHTML, like Gecko) draw.io/24.5.1 Chrome/124.0.6367.207 Electron/30.0.6 Safari/537.36" etag="R9kIcW3nJfb72sq5Ll5I" version="24.5.1" type="device">
  <diagram name="Page-1" id="8378b5f6-a2b2-b727-a746-972ab9d02e00">
    <mxGraphModel dx="2390" dy="1393" grid="1" gridSize="10" guides="1" tooltips="1" connect="0" arrows="1" fold="1" page="1" pageScale="1.5" pageWidth="1169" pageHeight="827" background="none" math="0" shadow="0">
      <root>
        <mxCell id="0" />
        <mxCell id="1" parent="0" />
        <mxCell id="4W-sPy0pznqI8UiAaeZ8-380" value="" style="strokeColor=#DEEDFF" parent="1" vertex="1">
          <mxGeometry x="1085" y="420" width="20" height="580" as="geometry" />
        </mxCell>
        <mxCell id="4W-sPy0pznqI8UiAaeZ8-381" value="" style="strokeColor=#DEEDFF" parent="1" vertex="1">
          <mxGeometry x="1105" y="420" width="20" height="580" as="geometry" />
        </mxCell>
        <mxCell id="4W-sPy0pznqI8UiAaeZ8-382" value="" style="strokeColor=#DEEDFF" parent="1" vertex="1">
          <mxGeometry x="1125" y="420" width="20" height="580" as="geometry" />
        </mxCell>
        <mxCell id="4W-sPy0pznqI8UiAaeZ8-383" value="" style="strokeColor=#DEEDFF" parent="1" vertex="1">
          <mxGeometry x="1145" y="420" width="20" height="580" as="geometry" />
        </mxCell>
        <mxCell id="4W-sPy0pznqI8UiAaeZ8-384" value="" style="strokeColor=#DEEDFF" parent="1" vertex="1">
          <mxGeometry x="1165" y="420" width="20" height="580" as="geometry" />
        </mxCell>
        <mxCell id="4W-sPy0pznqI8UiAaeZ8-385" value="" style="strokeColor=#DEEDFF;fillColor=#D4E1FF" parent="1" vertex="1">
          <mxGeometry x="1181.5" y="420" width="43.5" height="580" as="geometry" />
        </mxCell>
        <mxCell id="4W-sPy0pznqI8UiAaeZ8-374" value="" style="strokeColor=#DEEDFF" parent="1" vertex="1">
          <mxGeometry x="946.5" y="420" width="20" height="580" as="geometry" />
        </mxCell>
        <mxCell id="4W-sPy0pznqI8UiAaeZ8-375" value="" style="strokeColor=#DEEDFF" parent="1" vertex="1">
          <mxGeometry x="966.5" y="420" width="20" height="580" as="geometry" />
        </mxCell>
        <mxCell id="4W-sPy0pznqI8UiAaeZ8-376" value="" style="strokeColor=#DEEDFF" parent="1" vertex="1">
          <mxGeometry x="986.5" y="420" width="20" height="580" as="geometry" />
        </mxCell>
        <mxCell id="4W-sPy0pznqI8UiAaeZ8-377" value="" style="strokeColor=#DEEDFF" parent="1" vertex="1">
          <mxGeometry x="1006.5" y="420" width="20" height="580" as="geometry" />
        </mxCell>
        <mxCell id="4W-sPy0pznqI8UiAaeZ8-378" value="" style="strokeColor=#DEEDFF" parent="1" vertex="1">
          <mxGeometry x="1026.5" y="420" width="20" height="580" as="geometry" />
        </mxCell>
        <mxCell id="4W-sPy0pznqI8UiAaeZ8-379" value="" style="strokeColor=#DEEDFF;fillColor=#D4E1FF" parent="1" vertex="1">
          <mxGeometry x="1043" y="420" width="43.5" height="580" as="geometry" />
        </mxCell>
        <mxCell id="4W-sPy0pznqI8UiAaeZ8-368" value="" style="strokeColor=#DEEDFF" parent="1" vertex="1">
          <mxGeometry x="806.5" y="420" width="20" height="580" as="geometry" />
        </mxCell>
        <mxCell id="4W-sPy0pznqI8UiAaeZ8-369" value="" style="strokeColor=#DEEDFF" parent="1" vertex="1">
          <mxGeometry x="826.5" y="420" width="20" height="580" as="geometry" />
        </mxCell>
        <mxCell id="4W-sPy0pznqI8UiAaeZ8-370" value="" style="strokeColor=#DEEDFF" parent="1" vertex="1">
          <mxGeometry x="846.5" y="420" width="20" height="580" as="geometry" />
        </mxCell>
        <mxCell id="4W-sPy0pznqI8UiAaeZ8-371" value="" style="strokeColor=#DEEDFF" parent="1" vertex="1">
          <mxGeometry x="866.5" y="420" width="20" height="580" as="geometry" />
        </mxCell>
        <mxCell id="4W-sPy0pznqI8UiAaeZ8-372" value="" style="strokeColor=#DEEDFF" parent="1" vertex="1">
          <mxGeometry x="886.5" y="420" width="20" height="580" as="geometry" />
        </mxCell>
        <mxCell id="4W-sPy0pznqI8UiAaeZ8-373" value="" style="strokeColor=#DEEDFF;fillColor=#D4E1FF" parent="1" vertex="1">
          <mxGeometry x="903" y="420" width="43.5" height="580" as="geometry" />
        </mxCell>
        <mxCell id="4W-sPy0pznqI8UiAaeZ8-362" value="" style="strokeColor=#DEEDFF" parent="1" vertex="1">
          <mxGeometry x="666.5" y="420" width="20" height="580" as="geometry" />
        </mxCell>
        <mxCell id="4W-sPy0pznqI8UiAaeZ8-363" value="" style="strokeColor=#DEEDFF" parent="1" vertex="1">
          <mxGeometry x="686.5" y="420" width="20" height="580" as="geometry" />
        </mxCell>
        <mxCell id="4W-sPy0pznqI8UiAaeZ8-364" value="" style="strokeColor=#DEEDFF" parent="1" vertex="1">
          <mxGeometry x="706.5" y="420" width="20" height="580" as="geometry" />
        </mxCell>
        <mxCell id="4W-sPy0pznqI8UiAaeZ8-365" value="" style="strokeColor=#DEEDFF" parent="1" vertex="1">
          <mxGeometry x="726.5" y="420" width="20" height="580" as="geometry" />
        </mxCell>
        <mxCell id="4W-sPy0pznqI8UiAaeZ8-366" value="" style="strokeColor=#DEEDFF" parent="1" vertex="1">
          <mxGeometry x="746.5" y="420" width="20" height="580" as="geometry" />
        </mxCell>
        <mxCell id="4W-sPy0pznqI8UiAaeZ8-367" value="" style="strokeColor=#DEEDFF;fillColor=#D4E1FF" parent="1" vertex="1">
          <mxGeometry x="763" y="420" width="43.5" height="580" as="geometry" />
        </mxCell>
        <mxCell id="63" value="1" style="strokeColor=#DEEDFF;fillColor=#ADC3D9;fontColor=#000000;" parent="1" vertex="1">
          <mxGeometry x="86.5" y="420" width="40" height="20" as="geometry" />
        </mxCell>
        <mxCell id="64" value="Complete project execution" style="align=left;strokeColor=#DEEDFF;fillColor=#ADC3D9;fontColor=#000000;" parent="1" vertex="1">
          <mxGeometry x="126.5" y="420" width="320" height="20" as="geometry" />
        </mxCell>
        <mxCell id="65" value="" style="strokeColor=#DEEDFF;fillColor=#ADC3D9;fontColor=#000000;" parent="1" vertex="1">
          <mxGeometry x="446.50000000000176" y="420" width="80.00000000000028" height="20" as="geometry" />
        </mxCell>
        <mxCell id="68" value="" style="strokeColor=#DEEDFF" parent="1" vertex="1">
          <mxGeometry x="526.5" y="420" width="20" height="580" as="geometry" />
        </mxCell>
        <mxCell id="69" value="2" style="strokeColor=#DEEDFF;fillColor=#CCE5FF;fontColor=#000000;" parent="1" vertex="1">
          <mxGeometry x="86.50000000000026" y="439.9999999999999" width="40" height="20" as="geometry" />
        </mxCell>
        <mxCell id="70" value="admin-user-interfaces" style="align=left;strokeColor=#DEEDFF;fillColor=#CCE5FF;fontColor=#000000;" parent="1" vertex="1">
          <mxGeometry x="126.50000000000026" y="439.9999999999999" width="319.9999999999998" height="20" as="geometry" />
        </mxCell>
        <mxCell id="71" value="SP, SC" style="strokeColor=#DEEDFF;fillColor=#CCE5FF;fontColor=#000000;" parent="1" vertex="1">
          <mxGeometry x="446.500000000002" y="439.99999999999983" width="80.00000000000028" height="20" as="geometry" />
        </mxCell>
        <mxCell id="74" value="3" style="strokeColor=#DEEDFF" parent="1" vertex="1">
          <mxGeometry x="86.50000000000027" y="459.9999999999998" width="40" height="20" as="geometry" />
        </mxCell>
        <mxCell id="75" value="User &amp; Admin class initial setup" style="align=left;strokeColor=#DEEDFF" parent="1" vertex="1">
          <mxGeometry x="126.50000000000027" y="459.9999999999998" width="319.9999999999997" height="20.000000000000014" as="geometry" />
        </mxCell>
        <mxCell id="76" value="SP, SC" style="strokeColor=#DEEDFF" parent="1" vertex="1">
          <mxGeometry x="446.500000000002" y="459.9999999999997" width="80.00000000000028" height="20" as="geometry" />
        </mxCell>
        <mxCell id="79" value="4" style="strokeColor=#DEEDFF" parent="1" vertex="1">
          <mxGeometry x="86.5" y="480.00000000000017" width="40" height="20" as="geometry" />
        </mxCell>
        <mxCell id="80" value="input validation - email format &amp; password requirements" style="align=left;strokeColor=#DEEDFF" parent="1" vertex="1">
          <mxGeometry x="126.5" y="480.00000000000017" width="320" height="20" as="geometry" />
        </mxCell>
        <mxCell id="81" value="SP, SC" style="strokeColor=#DEEDFF" parent="1" vertex="1">
          <mxGeometry x="446.5000000000017" y="480.0000000000001" width="80.00000000000028" height="20" as="geometry" />
        </mxCell>
        <mxCell id="84" value="5" style="strokeColor=#DEEDFF" parent="1" vertex="1">
          <mxGeometry x="86.49999999999991" y="500.00000000000017" width="40" height="20" as="geometry" />
        </mxCell>
        <mxCell id="85" value="user menus - (access/change account details - start game)" style="align=left;strokeColor=#DEEDFF" parent="1" vertex="1">
          <mxGeometry x="126.49999999999991" y="500.00000000000017" width="320.0000000000001" height="20" as="geometry" />
        </mxCell>
        <mxCell id="86" value="SP, SC" style="strokeColor=#DEEDFF" parent="1" vertex="1">
          <mxGeometry x="446.50000000000165" y="500.0000000000001" width="80.00000000000028" height="20" as="geometry" />
        </mxCell>
        <mxCell id="89" value="6" style="strokeColor=#DEEDFF" parent="1" vertex="1">
          <mxGeometry x="86.4999999999999" y="520.0000000000005" width="40" height="20" as="geometry" />
        </mxCell>
        <mxCell id="90" value="admin menus - (add/remove/view/change/promote user)" style="align=left;strokeColor=#DEEDFF" parent="1" vertex="1">
          <mxGeometry x="126.4999999999999" y="520.0000000000005" width="320.0000000000001" height="20" as="geometry" />
        </mxCell>
        <mxCell id="91" value="SP, SC" style="strokeColor=#DEEDFF" parent="1" vertex="1">
          <mxGeometry x="446.50000000000165" y="520.0000000000003" width="80.00000000000028" height="20" as="geometry" />
        </mxCell>
        <mxCell id="94" value="7" style="strokeColor=#DEEDFF" parent="1" vertex="1">
          <mxGeometry x="86.50000000000063" y="540.0000000000007" width="40" height="20" as="geometry" />
        </mxCell>
        <mxCell id="95" value="integration" style="align=left;strokeColor=#DEEDFF" parent="1" vertex="1">
          <mxGeometry x="126.50000000000063" y="540.0000000000007" width="319.9999999999994" height="20" as="geometry" />
        </mxCell>
        <mxCell id="96" value="SP, SC" style="strokeColor=#DEEDFF" parent="1" vertex="1">
          <mxGeometry x="446.5000000000024" y="540.0000000000007" width="80.00000000000028" height="20" as="geometry" />
        </mxCell>
        <mxCell id="99" value="8" style="strokeColor=#DEEDFF" parent="1" vertex="1">
          <mxGeometry x="86.50000000000064" y="560.0000000000006" width="40" height="20" as="geometry" />
        </mxCell>
        <mxCell id="100" value="cleanup/documentation/debug finalization" style="align=left;strokeColor=#DEEDFF" parent="1" vertex="1">
          <mxGeometry x="126.50000000000064" y="560.0000000000006" width="319.9999999999994" height="20" as="geometry" />
        </mxCell>
        <mxCell id="101" value="SP, SC" style="strokeColor=#DEEDFF" parent="1" vertex="1">
          <mxGeometry x="446.5000000000024" y="560.0000000000006" width="80.00000000000028" height="20" as="geometry" />
        </mxCell>
        <mxCell id="104" value="9" style="strokeColor=#DEEDFF;fillColor=#CCE5FF" parent="1" vertex="1">
          <mxGeometry x="86.50000000000037" y="580.000000000001" width="40" height="20" as="geometry" />
        </mxCell>
        <mxCell id="105" value="player-interaction" style="align=left;strokeColor=#DEEDFF;fillColor=#CCE5FF" parent="1" vertex="1">
          <mxGeometry x="126.50000000000037" y="580.000000000001" width="319.99999999999966" height="20.00000000000003" as="geometry" />
        </mxCell>
        <mxCell id="106" value="AB, AY, CM, IL, MH" style="strokeColor=#DEEDFF;fillColor=#CCE5FF;fontSize=9;fontColor=#000000;" parent="1" vertex="1">
          <mxGeometry x="446.5000000000021" y="580.0000000000009" width="80.00000000000028" height="20" as="geometry" />
        </mxCell>
        <mxCell id="109" value="10" style="strokeColor=#DEEDFF" parent="1" vertex="1">
          <mxGeometry x="86.50000000000028" y="600.000000000001" width="40" height="20" as="geometry" />
        </mxCell>
        <mxCell id="110" value="- update gameboard according to player-gameplay" style="align=left;strokeColor=#DEEDFF" parent="1" vertex="1">
          <mxGeometry x="126.50000000000028" y="600.000000000001" width="319.9999999999997" height="20" as="geometry" />
        </mxCell>
        <mxCell id="111" value="AY, AB, CM, IL, MH" style="strokeColor=#DEEDFF;fontSize=9;" parent="1" vertex="1">
          <mxGeometry x="446.50000000000205" y="600.0000000000009" width="80.00000000000028" height="20" as="geometry" />
        </mxCell>
        <mxCell id="114" value="11" style="strokeColor=#DEEDFF" parent="1" vertex="1">
          <mxGeometry x="86.50000000000027" y="620.0000000000013" width="40" height="20" as="geometry" />
        </mxCell>
        <mxCell id="115" value="- Save game results to the game object" style="align=left;strokeColor=#DEEDFF" parent="1" vertex="1">
          <mxGeometry x="126.50000000000027" y="620.0000000000013" width="319.9999999999997" height="20" as="geometry" />
        </mxCell>
        <mxCell id="116" value="AY, AB, CM, IL, MH" style="strokeColor=#DEEDFF;fontSize=9;" parent="1" vertex="1">
          <mxGeometry x="446.50000000000205" y="620.0000000000011" width="80.00000000000028" height="20" as="geometry" />
        </mxCell>
        <mxCell id="119" value="12" style="strokeColor=#DEEDFF" parent="1" vertex="1">
          <mxGeometry x="86.49999999999997" y="640.0000000000016" width="40" height="20" as="geometry" />
        </mxCell>
        <mxCell id="120" value="- Send to file-savers to update binary records" style="align=left;strokeColor=#DEEDFF" parent="1" vertex="1">
          <mxGeometry x="126.49999999999997" y="640.0000000000016" width="320" height="20" as="geometry" />
        </mxCell>
        <mxCell id="121" value="AY, AB, CM, IL, MH" style="strokeColor=#DEEDFF;fontSize=9;" parent="1" vertex="1">
          <mxGeometry x="446.5" y="640" width="80" height="20" as="geometry" />
        </mxCell>
        <mxCell id="124" value="13" style="strokeColor=#DEEDFF" parent="1" vertex="1">
          <mxGeometry x="86.49999999999999" y="660.0000000000014" width="40" height="20" as="geometry" />
        </mxCell>
        <mxCell id="125" value="- debugging and merging" style="align=left;strokeColor=#DEEDFF" parent="1" vertex="1">
          <mxGeometry x="126.49999999999999" y="660.0000000000014" width="320" height="20" as="geometry" />
        </mxCell>
        <mxCell id="126" value="" style="strokeColor=#DEEDFF;fontSize=12;" parent="1" vertex="1">
          <mxGeometry x="446.5000000000017" y="700.0000000000014" width="80.00000000000028" height="20" as="geometry" />
        </mxCell>
        <mxCell id="129" value="14" style="strokeColor=#DEEDFF" parent="1" vertex="1">
          <mxGeometry x="86.49999999999972" y="680.0000000000018" width="40" height="20" as="geometry" />
        </mxCell>
        <mxCell id="130" value="- consolidation and documentation" style="align=left;strokeColor=#DEEDFF" parent="1" vertex="1">
          <mxGeometry x="126.49999999999972" y="680.0000000000018" width="320.0000000000003" height="20" as="geometry" />
        </mxCell>
        <mxCell id="131" value="AY, AB, CM, IL, MH" style="strokeColor=#DEEDFF;fontSize=9;" parent="1" vertex="1">
          <mxGeometry x="446.5000000000014" y="680.0000000000018" width="80.00000000000028" height="20" as="geometry" />
        </mxCell>
        <mxCell id="134" value="15" style="strokeColor=#DEEDFF;fillColor=#18141D;" parent="1" vertex="1">
          <mxGeometry x="86.49999999999963" y="700.0000000000018" width="40" height="20" as="geometry" />
        </mxCell>
        <mxCell id="135" value="" style="align=left;strokeColor=#DEEDFF;fillColor=#18141D;" parent="1" vertex="1">
          <mxGeometry x="126.49999999999963" y="700.0000000000018" width="320.00000000000034" height="20" as="geometry" />
        </mxCell>
        <mxCell id="136" value="AY, AB, CM, IL, MH" style="strokeColor=#DEEDFF;fillColor=#18141D;fontSize=9;fontColor=#FFFFFF;" parent="1" vertex="1">
          <mxGeometry x="446.50000000000136" y="660.0000000000018" width="80.00000000000028" height="20" as="geometry" />
        </mxCell>
        <mxCell id="139" value="16" style="strokeColor=#DEEDFF;fillColor=#CCE5FF" parent="1" vertex="1">
          <mxGeometry x="86.49999999999962" y="720.000000000002" width="40" height="20" as="geometry" />
        </mxCell>
        <mxCell id="140" value="ai-gameplacy" style="align=left;strokeColor=#DEEDFF;fillColor=#CCE5FF" parent="1" vertex="1">
          <mxGeometry x="126.49999999999962" y="720.000000000002" width="320.0000000000004" height="20" as="geometry" />
        </mxCell>
        <mxCell id="141" value="LH, MAR, MR" style="strokeColor=#DEEDFF;fillColor=#CCE5FF" parent="1" vertex="1">
          <mxGeometry x="446.50000000000136" y="720.000000000002" width="80.00000000000028" height="20" as="geometry" />
        </mxCell>
        <mxCell id="144" value="17" style="strokeColor=#DEEDFF" parent="1" vertex="1">
          <mxGeometry x="86.500000000001" y="740.0000000000023" width="40" height="20" as="geometry" />
        </mxCell>
        <mxCell id="145" value="- shoot - &quot;dumb&quot; computer shot placement function" style="align=left;strokeColor=#DEEDFF" parent="1" vertex="1">
          <mxGeometry x="126.500000000001" y="740.0000000000023" width="319.999999999999" height="20" as="geometry" />
        </mxCell>
        <mxCell id="146" value="LH, MAR, MR" style="strokeColor=#DEEDFF" parent="1" vertex="1">
          <mxGeometry x="446.50000000000273" y="740.0000000000023" width="80.00000000000028" height="20" as="geometry" />
        </mxCell>
        <mxCell id="149" value="18" style="strokeColor=#DEEDFF" parent="1" vertex="1">
          <mxGeometry x="86.50000000000102" y="760.0000000000022" width="40" height="20" as="geometry" />
        </mxCell>
        <mxCell id="150" value="- setSmart - &quot;smart&quot; computer toggle function" style="align=left;strokeColor=#DEEDFF" parent="1" vertex="1">
          <mxGeometry x="126.50000000000102" y="760.0000000000022" width="319.999999999999" height="20" as="geometry" />
        </mxCell>
        <mxCell id="151" value="LH, MAR, MR" style="strokeColor=#DEEDFF" parent="1" vertex="1">
          <mxGeometry x="446.50000000000273" y="760.000000000002" width="80.00000000000028" height="20" as="geometry" />
        </mxCell>
        <mxCell id="154" value="19" style="strokeColor=#DEEDFF" parent="1" vertex="1">
          <mxGeometry x="86.50000000000074" y="780.0000000000025" width="40" height="20" as="geometry" />
        </mxCell>
        <mxCell id="155" value="- getSmart - &quot;smart&quot; computer toggle function" style="align=left;strokeColor=#DEEDFF" parent="1" vertex="1">
          <mxGeometry x="126.50000000000074" y="780.0000000000025" width="319.99999999999926" height="20" as="geometry" />
        </mxCell>
        <mxCell id="156" value="LH, MAR, MR" style="strokeColor=#DEEDFF" parent="1" vertex="1">
          <mxGeometry x="446.50000000000244" y="780.0000000000025" width="80.00000000000028" height="20" as="geometry" />
        </mxCell>
        <mxCell id="159" value="20" style="strokeColor=#DEEDFF" parent="1" vertex="1">
          <mxGeometry x="86.50000000000065" y="800.0000000000025" width="40" height="20" as="geometry" />
        </mxCell>
        <mxCell id="160" value="- implementing computer difficulty modes" style="align=left;strokeColor=#DEEDFF" parent="1" vertex="1">
          <mxGeometry x="126.50000000000065" y="800.0000000000025" width="319.9999999999993" height="20" as="geometry" />
        </mxCell>
        <mxCell id="161" value="LH, MAR, MR" style="strokeColor=#DEEDFF" parent="1" vertex="1">
          <mxGeometry x="446.5000000000024" y="800.0000000000025" width="80.00000000000028" height="20" as="geometry" />
        </mxCell>
        <mxCell id="164" value="21" style="strokeColor=#DEEDFF" parent="1" vertex="1">
          <mxGeometry x="86.50000000000065" y="820.0000000000028" width="40" height="20" as="geometry" />
        </mxCell>
        <mxCell id="165" value="- debugging and consolidation" style="align=left;strokeColor=#DEEDFF" parent="1" vertex="1">
          <mxGeometry x="126.50000000000065" y="820.0000000000028" width="319.9999999999993" height="20" as="geometry" />
        </mxCell>
        <mxCell id="166" value="LH, MAR, MR" style="strokeColor=#DEEDFF" parent="1" vertex="1">
          <mxGeometry x="446.5000000000024" y="820.0000000000027" width="80.00000000000028" height="20" as="geometry" />
        </mxCell>
        <mxCell id="169" value="22" style="strokeColor=#DEEDFF" parent="1" vertex="1">
          <mxGeometry x="86.50000000000136" y="840.0000000000031" width="40" height="20" as="geometry" />
        </mxCell>
        <mxCell id="170" value="- documentation" style="align=left;strokeColor=#DEEDFF" parent="1" vertex="1">
          <mxGeometry x="126.50000000000136" y="840.0000000000031" width="319.99999999999864" height="20" as="geometry" />
        </mxCell>
        <mxCell id="171" value="LH, MAR, MR" style="strokeColor=#DEEDFF" parent="1" vertex="1">
          <mxGeometry x="446.5000000000031" y="840.000000000003" width="80.00000000000028" height="20" as="geometry" />
        </mxCell>
        <mxCell id="194" value="" style="strokeColor=#DEEDFF" parent="1" vertex="1">
          <mxGeometry x="546.5" y="420" width="20" height="580" as="geometry" />
        </mxCell>
        <mxCell id="195" value="" style="strokeColor=#DEEDFF" parent="1" vertex="1">
          <mxGeometry x="566.5" y="420" width="20" height="580" as="geometry" />
        </mxCell>
        <mxCell id="196" value="" style="strokeColor=#DEEDFF" parent="1" vertex="1">
          <mxGeometry x="586.5" y="420" width="20" height="580" as="geometry" />
        </mxCell>
        <mxCell id="197" value="" style="strokeColor=#DEEDFF" parent="1" vertex="1">
          <mxGeometry x="606.5" y="420" width="20" height="580" as="geometry" />
        </mxCell>
        <mxCell id="198" value="" style="strokeColor=#DEEDFF;fillColor=#D4E1FF" parent="1" vertex="1">
          <mxGeometry x="623" y="420" width="43.5" height="580" as="geometry" />
        </mxCell>
        <mxCell id="2" value="Task Name" style="fillColor=#23445D;strokeColor=#FFFFFF;strokeWidth=2;fontColor=#FFFFFF;fontStyle=1" parent="1" vertex="1">
          <mxGeometry x="126.5" y="380" width="320" height="40" as="geometry" />
        </mxCell>
        <mxCell id="3" value="" style="fillColor=#23445D;strokeColor=#FFFFFF;strokeWidth=2;fontColor=#FFFFFF;fontStyle=1" parent="1" vertex="1">
          <mxGeometry x="86.5" y="380" width="40" height="40" as="geometry" />
        </mxCell>
        <mxCell id="4" value="May 6" style="fillColor=#23445D;strokeColor=#FFFFFF;strokeWidth=2;fontColor=#FFFFFF;fontStyle=1" parent="1" vertex="1">
          <mxGeometry x="526.5000000000018" y="380.0000000000001" width="140" height="20" as="geometry" />
        </mxCell>
        <mxCell id="5" value="M" style="fillColor=#23445D;strokeColor=#FFFFFF;strokeWidth=2;fontColor=#FFFFFF;fontStyle=1" parent="1" vertex="1">
          <mxGeometry x="526.5000000000018" y="400.0000000000001" width="20" height="20" as="geometry" />
        </mxCell>
        <mxCell id="6" value="T" style="fillColor=#23445D;strokeColor=#FFFFFF;strokeWidth=2;fontColor=#FFFFFF;fontStyle=1" parent="1" vertex="1">
          <mxGeometry x="546.5000000000018" y="400.0000000000001" width="20" height="20" as="geometry" />
        </mxCell>
        <mxCell id="7" value="W" style="fillColor=#23445D;strokeColor=#FFFFFF;strokeWidth=2;fontColor=#FFFFFF;fontStyle=1" parent="1" vertex="1">
          <mxGeometry x="566.5000000000018" y="400.0000000000001" width="20" height="20" as="geometry" />
        </mxCell>
        <mxCell id="8" value="T" style="fillColor=#23445D;strokeColor=#FFFFFF;strokeWidth=2;fontColor=#FFFFFF;fontStyle=1" parent="1" vertex="1">
          <mxGeometry x="586.5000000000018" y="400.0000000000001" width="20" height="20" as="geometry" />
        </mxCell>
        <mxCell id="9" value="F" style="fillColor=#23445D;strokeColor=#FFFFFF;strokeWidth=2;fontColor=#FFFFFF;fontStyle=1" parent="1" vertex="1">
          <mxGeometry x="606.5000000000016" y="400.0000000000001" width="20" height="20" as="geometry" />
        </mxCell>
        <mxCell id="10" value="S" style="fillColor=#23445D;strokeColor=#FFFFFF;strokeWidth=2;fontColor=#FFFFFF;fontStyle=1" parent="1" vertex="1">
          <mxGeometry x="626.5000000000016" y="400.0000000000001" width="20" height="20" as="geometry" />
        </mxCell>
        <mxCell id="11" value="S" style="fillColor=#23445D;strokeColor=#FFFFFF;strokeWidth=2;fontColor=#FFFFFF;fontStyle=1" parent="1" vertex="1">
          <mxGeometry x="646.5000000000016" y="400.0000000000001" width="20" height="20" as="geometry" />
        </mxCell>
        <mxCell id="12" value="Developer" style="fillColor=#23445D;strokeColor=#FFFFFF;strokeWidth=2;fontColor=#FFFFFF;fontStyle=1" parent="1" vertex="1">
          <mxGeometry x="446.50000000000176" y="380.00000000000006" width="80.00000000000006" height="40.00000000000001" as="geometry" />
        </mxCell>
        <mxCell id="15" value="May 13" style="fillColor=#23445D;strokeColor=#FFFFFF;strokeWidth=2;fontColor=#FFFFFF;fontStyle=1" parent="1" vertex="1">
          <mxGeometry x="666.5000000000018" y="380.0000000000001" width="140" height="20" as="geometry" />
        </mxCell>
        <mxCell id="16" value="M" style="fillColor=#23445D;strokeColor=#FFFFFF;strokeWidth=2;fontColor=#FFFFFF;fontStyle=1" parent="1" vertex="1">
          <mxGeometry x="666.5000000000018" y="400.0000000000001" width="20" height="20" as="geometry" />
        </mxCell>
        <mxCell id="17" value="T" style="fillColor=#23445D;strokeColor=#FFFFFF;strokeWidth=2;fontColor=#FFFFFF;fontStyle=1" parent="1" vertex="1">
          <mxGeometry x="686.5000000000018" y="400.0000000000001" width="20" height="20" as="geometry" />
        </mxCell>
        <mxCell id="18" value="W" style="fillColor=#23445D;strokeColor=#FFFFFF;strokeWidth=2;fontColor=#FFFFFF;fontStyle=1" parent="1" vertex="1">
          <mxGeometry x="706.5000000000018" y="400.0000000000001" width="20" height="20" as="geometry" />
        </mxCell>
        <mxCell id="19" value="T" style="fillColor=#23445D;strokeColor=#FFFFFF;strokeWidth=2;fontColor=#FFFFFF;fontStyle=1" parent="1" vertex="1">
          <mxGeometry x="726.5000000000018" y="400.0000000000001" width="20" height="20" as="geometry" />
        </mxCell>
        <mxCell id="20" value="F" style="fillColor=#23445D;strokeColor=#FFFFFF;strokeWidth=2;fontColor=#FFFFFF;fontStyle=1" parent="1" vertex="1">
          <mxGeometry x="746.5000000000016" y="400.0000000000001" width="20" height="20" as="geometry" />
        </mxCell>
        <mxCell id="21" value="S" style="fillColor=#23445D;strokeColor=#FFFFFF;strokeWidth=2;fontColor=#FFFFFF;fontStyle=1" parent="1" vertex="1">
          <mxGeometry x="766.5000000000016" y="400.0000000000001" width="20" height="20" as="geometry" />
        </mxCell>
        <mxCell id="22" value="S" style="fillColor=#23445D;strokeColor=#FFFFFF;strokeWidth=2;fontColor=#FFFFFF;fontStyle=1" parent="1" vertex="1">
          <mxGeometry x="786.5000000000016" y="400.0000000000001" width="20" height="20" as="geometry" />
        </mxCell>
        <mxCell id="23" value="May 20" style="fillColor=#23445D;strokeColor=#FFFFFF;strokeWidth=2;fontColor=#FFFFFF;fontStyle=1" parent="1" vertex="1">
          <mxGeometry x="806.5000000000018" y="380.00000000000006" width="140" height="20" as="geometry" />
        </mxCell>
        <mxCell id="24" value="M" style="fillColor=#23445D;strokeColor=#FFFFFF;strokeWidth=2;fontColor=#FFFFFF;fontStyle=1" parent="1" vertex="1">
          <mxGeometry x="806.5000000000018" y="400.00000000000006" width="20" height="20" as="geometry" />
        </mxCell>
        <mxCell id="25" value="T" style="fillColor=#23445D;strokeColor=#FFFFFF;strokeWidth=2;fontColor=#FFFFFF;fontStyle=1" parent="1" vertex="1">
          <mxGeometry x="826.5000000000018" y="400.00000000000006" width="20" height="20" as="geometry" />
        </mxCell>
        <mxCell id="26" value="W" style="fillColor=#23445D;strokeColor=#FFFFFF;strokeWidth=2;fontColor=#FFFFFF;fontStyle=1" parent="1" vertex="1">
          <mxGeometry x="846.5000000000018" y="400.00000000000006" width="20" height="20" as="geometry" />
        </mxCell>
        <mxCell id="27" value="T" style="fillColor=#23445D;strokeColor=#FFFFFF;strokeWidth=2;fontColor=#FFFFFF;fontStyle=1" parent="1" vertex="1">
          <mxGeometry x="866.5000000000018" y="400.00000000000006" width="20" height="20" as="geometry" />
        </mxCell>
        <mxCell id="28" value="F" style="fillColor=#23445D;strokeColor=#FFFFFF;strokeWidth=2;fontColor=#FFFFFF;fontStyle=1" parent="1" vertex="1">
          <mxGeometry x="886.5000000000016" y="400.00000000000006" width="20" height="20" as="geometry" />
        </mxCell>
        <mxCell id="29" value="S" style="fillColor=#23445D;strokeColor=#FFFFFF;strokeWidth=2;fontColor=#FFFFFF;fontStyle=1" parent="1" vertex="1">
          <mxGeometry x="906.5000000000016" y="400.00000000000006" width="20" height="20" as="geometry" />
        </mxCell>
        <mxCell id="30" value="S" style="fillColor=#23445D;strokeColor=#FFFFFF;strokeWidth=2;fontColor=#FFFFFF;fontStyle=1" parent="1" vertex="1">
          <mxGeometry x="926.5000000000016" y="400.00000000000006" width="20" height="20" as="geometry" />
        </mxCell>
        <mxCell id="31" value="May 27" style="fillColor=#23445D;strokeColor=#FFFFFF;strokeWidth=2;fontColor=#FFFFFF;fontStyle=1" parent="1" vertex="1">
          <mxGeometry x="946.5000000000018" y="380.00000000000006" width="140" height="20" as="geometry" />
        </mxCell>
        <mxCell id="32" value="M" style="fillColor=#23445D;strokeColor=#FFFFFF;strokeWidth=2;fontColor=#FFFFFF;fontStyle=1" parent="1" vertex="1">
          <mxGeometry x="946.5000000000018" y="400.00000000000006" width="20" height="20" as="geometry" />
        </mxCell>
        <mxCell id="33" value="T" style="fillColor=#23445D;strokeColor=#FFFFFF;strokeWidth=2;fontColor=#FFFFFF;fontStyle=1" parent="1" vertex="1">
          <mxGeometry x="966.5000000000018" y="400.00000000000006" width="20" height="20" as="geometry" />
        </mxCell>
        <mxCell id="34" value="W" style="fillColor=#23445D;strokeColor=#FFFFFF;strokeWidth=2;fontColor=#FFFFFF;fontStyle=1" parent="1" vertex="1">
          <mxGeometry x="986.5000000000018" y="400.00000000000006" width="20" height="20" as="geometry" />
        </mxCell>
        <mxCell id="35" value="T" style="fillColor=#23445D;strokeColor=#FFFFFF;strokeWidth=2;fontColor=#FFFFFF;fontStyle=1" parent="1" vertex="1">
          <mxGeometry x="1006.5000000000018" y="400.00000000000006" width="20" height="20" as="geometry" />
        </mxCell>
        <mxCell id="36" value="F" style="fillColor=#23445D;strokeColor=#FFFFFF;strokeWidth=2;fontColor=#FFFFFF;fontStyle=1" parent="1" vertex="1">
          <mxGeometry x="1026.5000000000016" y="400" width="20" height="20" as="geometry" />
        </mxCell>
        <mxCell id="37" value="S" style="fillColor=#23445D;strokeColor=#FFFFFF;strokeWidth=2;fontColor=#FFFFFF;fontStyle=1" parent="1" vertex="1">
          <mxGeometry x="1046.5000000000016" y="400" width="20" height="20" as="geometry" />
        </mxCell>
        <mxCell id="38" value="S" style="fillColor=#23445D;strokeColor=#FFFFFF;strokeWidth=2;fontColor=#FFFFFF;fontStyle=1" parent="1" vertex="1">
          <mxGeometry x="1066.5000000000016" y="400" width="20" height="20" as="geometry" />
        </mxCell>
        <mxCell id="Jeid9guDCt3J0gndHfBI-298" value="24" style="strokeColor=#DEEDFF" parent="1" vertex="1">
          <mxGeometry x="86.50000000000102" y="880.0000000000036" width="40" height="20" as="geometry" />
        </mxCell>
        <mxCell id="Jeid9guDCt3J0gndHfBI-299" value="Accounts Database" style="align=left;strokeColor=#DEEDFF" parent="1" vertex="1">
          <mxGeometry x="126.500000000001" y="880.0000000000036" width="319.999999999999" height="20" as="geometry" />
        </mxCell>
        <mxCell id="Jeid9guDCt3J0gndHfBI-300" value="HZ" style="strokeColor=#DEEDFF" parent="1" vertex="1">
          <mxGeometry x="446.5000000000028" y="880.0000000000036" width="80.00000000000028" height="20" as="geometry" />
        </mxCell>
        <mxCell id="Jeid9guDCt3J0gndHfBI-303" value="25" style="strokeColor=#DEEDFF" parent="1" vertex="1">
          <mxGeometry x="86.50000000000102" y="900.0000000000036" width="40" height="20" as="geometry" />
        </mxCell>
        <mxCell id="Jeid9guDCt3J0gndHfBI-304" value="Game Savefile" style="align=left;strokeColor=#DEEDFF" parent="1" vertex="1">
          <mxGeometry x="126.500000000001" y="900.0000000000036" width="319.999999999999" height="20" as="geometry" />
        </mxCell>
        <mxCell id="Jeid9guDCt3J0gndHfBI-305" value="HZ" style="strokeColor=#DEEDFF" parent="1" vertex="1">
          <mxGeometry x="446.5000000000028" y="900.0000000000036" width="80.00000000000028" height="20" as="geometry" />
        </mxCell>
        <mxCell id="Jeid9guDCt3J0gndHfBI-308" value="26" style="strokeColor=#DEEDFF" parent="1" vertex="1">
          <mxGeometry x="86.50000000000102" y="920.0000000000036" width="40" height="20" as="geometry" />
        </mxCell>
        <mxCell id="Jeid9guDCt3J0gndHfBI-309" value="Debugging and Documentation" style="align=left;strokeColor=#DEEDFF" parent="1" vertex="1">
          <mxGeometry x="126.500000000001" y="920.0000000000036" width="319.999999999999" height="20" as="geometry" />
        </mxCell>
        <mxCell id="Jeid9guDCt3J0gndHfBI-310" value="HZ" style="strokeColor=#DEEDFF" parent="1" vertex="1">
          <mxGeometry x="446.5000000000028" y="920.0000000000036" width="80.00000000000028" height="20" as="geometry" />
        </mxCell>
        <mxCell id="Jeid9guDCt3J0gndHfBI-313" value="27" style="strokeColor=#DEEDFF" parent="1" vertex="1">
          <mxGeometry x="86.50000000000111" y="940.0000000000034" width="40" height="20" as="geometry" />
        </mxCell>
        <mxCell id="Jeid9guDCt3J0gndHfBI-314" value="" style="align=left;strokeColor=#DEEDFF" parent="1" vertex="1">
          <mxGeometry x="126.50000000000111" y="940.0000000000034" width="319.99999999999886" height="20" as="geometry" />
        </mxCell>
        <mxCell id="Jeid9guDCt3J0gndHfBI-315" value="" style="strokeColor=#DEEDFF" parent="1" vertex="1">
          <mxGeometry x="446.50000000000284" y="940.0000000000032" width="80.00000000000028" height="20" as="geometry" />
        </mxCell>
        <mxCell id="Jeid9guDCt3J0gndHfBI-318" value="28" style="strokeColor=#DEEDFF" parent="1" vertex="1">
          <mxGeometry x="86.50000000000102" y="960.0000000000034" width="40" height="20" as="geometry" />
        </mxCell>
        <mxCell id="Jeid9guDCt3J0gndHfBI-319" value="" style="align=left;strokeColor=#DEEDFF" parent="1" vertex="1">
          <mxGeometry x="126.50000000000102" y="960.0000000000034" width="319.999999999999" height="20" as="geometry" />
        </mxCell>
        <mxCell id="Jeid9guDCt3J0gndHfBI-320" value="" style="strokeColor=#DEEDFF" parent="1" vertex="1">
          <mxGeometry x="446.5000000000028" y="960.0000000000032" width="80.00000000000028" height="20" as="geometry" />
        </mxCell>
        <mxCell id="Jeid9guDCt3J0gndHfBI-323" value="29" style="strokeColor=#DEEDFF" parent="1" vertex="1">
          <mxGeometry x="86.50000000000102" y="980.0000000000036" width="40" height="20" as="geometry" />
        </mxCell>
        <mxCell id="Jeid9guDCt3J0gndHfBI-324" value="" style="align=left;strokeColor=#DEEDFF" parent="1" vertex="1">
          <mxGeometry x="126.500000000001" y="980.0000000000036" width="319.999999999999" height="20" as="geometry" />
        </mxCell>
        <mxCell id="Jeid9guDCt3J0gndHfBI-325" value="" style="strokeColor=#DEEDFF" parent="1" vertex="1">
          <mxGeometry x="446.5000000000028" y="980.0000000000036" width="80.00000000000028" height="20" as="geometry" />
        </mxCell>
        <mxCell id="Jeid9guDCt3J0gndHfBI-395" value="23" style="strokeColor=#DEEDFF;fillColor=#CCE5FF" parent="1" vertex="1">
          <mxGeometry x="86.49999999999962" y="860.000000000002" width="40" height="20" as="geometry" />
        </mxCell>
        <mxCell id="Jeid9guDCt3J0gndHfBI-396" value="file-savers" style="align=left;strokeColor=#DEEDFF;fillColor=#CCE5FF" parent="1" vertex="1">
          <mxGeometry x="126.4999999999996" y="860.000000000002" width="320.0000000000004" height="20" as="geometry" />
        </mxCell>
        <mxCell id="Jeid9guDCt3J0gndHfBI-397" value="HZ" style="strokeColor=#DEEDFF;fillColor=#CCE5FF" parent="1" vertex="1">
          <mxGeometry x="446.50000000000136" y="860.000000000002" width="80.00000000000028" height="20" as="geometry" />
        </mxCell>
        <mxCell id="Jeid9guDCt3J0gndHfBI-506" value="June 3" style="fillColor=#23445D;strokeColor=#FFFFFF;strokeWidth=2;fontColor=#FFFFFF;fontStyle=1" parent="1" vertex="1">
          <mxGeometry x="1086.5000000000018" y="380.00000000000006" width="140" height="20" as="geometry" />
        </mxCell>
        <mxCell id="Jeid9guDCt3J0gndHfBI-507" value="M" style="fillColor=#23445D;strokeColor=#FFFFFF;strokeWidth=2;fontColor=#FFFFFF;fontStyle=1" parent="1" vertex="1">
          <mxGeometry x="1086.5000000000018" y="400.00000000000006" width="20" height="20" as="geometry" />
        </mxCell>
        <mxCell id="Jeid9guDCt3J0gndHfBI-508" value="T" style="fillColor=#23445D;strokeColor=#FFFFFF;strokeWidth=2;fontColor=#FFFFFF;fontStyle=1" parent="1" vertex="1">
          <mxGeometry x="1106.5000000000018" y="400.00000000000006" width="20" height="20" as="geometry" />
        </mxCell>
        <mxCell id="Jeid9guDCt3J0gndHfBI-509" value="W" style="fillColor=#23445D;strokeColor=#FFFFFF;strokeWidth=2;fontColor=#FFFFFF;fontStyle=1" parent="1" vertex="1">
          <mxGeometry x="1126.5000000000018" y="400.00000000000006" width="20" height="20" as="geometry" />
        </mxCell>
        <mxCell id="Jeid9guDCt3J0gndHfBI-510" value="T" style="fillColor=#23445D;strokeColor=#FFFFFF;strokeWidth=2;fontColor=#FFFFFF;fontStyle=1" parent="1" vertex="1">
          <mxGeometry x="1146.5000000000018" y="400.00000000000006" width="20" height="20" as="geometry" />
        </mxCell>
        <mxCell id="Jeid9guDCt3J0gndHfBI-511" value="F" style="fillColor=#23445D;strokeColor=#FFFFFF;strokeWidth=2;fontColor=#FFFFFF;fontStyle=1" parent="1" vertex="1">
          <mxGeometry x="1166.5000000000016" y="400" width="20" height="20" as="geometry" />
        </mxCell>
        <mxCell id="Jeid9guDCt3J0gndHfBI-512" value="S" style="fillColor=#23445D;strokeColor=#FFFFFF;strokeWidth=2;fontColor=#FFFFFF;fontStyle=1" parent="1" vertex="1">
          <mxGeometry x="1186.5000000000016" y="400" width="20" height="20" as="geometry" />
        </mxCell>
        <mxCell id="Jeid9guDCt3J0gndHfBI-513" value="S" style="fillColor=#23445D;strokeColor=#FFFFFF;strokeWidth=2;fontColor=#FFFFFF;fontStyle=1" parent="1" vertex="1">
          <mxGeometry x="1206.5000000000016" y="400" width="20" height="20" as="geometry" />
        </mxCell>
        <mxCell id="254" value="" style="shape=mxgraph.flowchart.process;fillColor=#AE4132;strokeColor=#000000;strokeWidth=2;opacity=100" parent="1" vertex="1">
          <mxGeometry x="528" y="420" width="697" height="20" as="geometry" />
        </mxCell>
        <mxCell id="Jeid9guDCt3J0gndHfBI-527" value="" style="shape=mxgraph.flowchart.process;fillColor=#AE4132;strokeColor=none;strokeWidth=2;opacity=50" parent="1" vertex="1">
          <mxGeometry x="766.5000000000022" y="880.000000000002" width="159.99999999999784" height="19.99999999999983" as="geometry" />
        </mxCell>
        <mxCell id="Jeid9guDCt3J0gndHfBI-528" value="" style="shape=mxgraph.flowchart.process;fillColor=#AE4132;strokeColor=none;strokeWidth=2;opacity=50" parent="1" vertex="1">
          <mxGeometry x="926.5000000000023" y="900.000000000002" width="159.99999999999784" height="19.99999999999983" as="geometry" />
        </mxCell>
        <mxCell id="YslVnldPY5_QTh7AHuWf-279" value="HZ" style="strokeColor=#DEEDFF" parent="1" vertex="1">
          <mxGeometry x="120.00000000000102" y="92.12000000000364" width="40" height="20" as="geometry" />
        </mxCell>
        <mxCell id="YslVnldPY5_QTh7AHuWf-280" value="Hannes Z." style="align=left;strokeColor=#DEEDFF" parent="1" vertex="1">
          <mxGeometry x="160.000000000001" y="92.12000000000364" width="149.99999999999898" height="20" as="geometry" />
        </mxCell>
        <mxCell id="YslVnldPY5_QTh7AHuWf-281" value="SP" style="strokeColor=#DEEDFF" parent="1" vertex="1">
          <mxGeometry x="120.00000000000111" y="112.12000000000342" width="40" height="20" as="geometry" />
        </mxCell>
        <mxCell id="YslVnldPY5_QTh7AHuWf-282" value="Stephanie P." style="align=left;strokeColor=#DEEDFF" parent="1" vertex="1">
          <mxGeometry x="160.0000000000011" y="112.12000000000342" width="149.99999999999886" height="20" as="geometry" />
        </mxCell>
        <mxCell id="YslVnldPY5_QTh7AHuWf-283" value="LH" style="strokeColor=#DEEDFF" parent="1" vertex="1">
          <mxGeometry x="120.00000000000102" y="132.12000000000342" width="40" height="20" as="geometry" />
        </mxCell>
        <mxCell id="YslVnldPY5_QTh7AHuWf-284" value="Leoncio H." style="align=left;strokeColor=#DEEDFF" parent="1" vertex="1">
          <mxGeometry x="160.00000000000102" y="132.12000000000342" width="149.99999999999898" height="20" as="geometry" />
        </mxCell>
        <mxCell id="YslVnldPY5_QTh7AHuWf-285" value="MR" style="strokeColor=#DEEDFF" parent="1" vertex="1">
          <mxGeometry x="120.00000000000102" y="152.12000000000364" width="40" height="20" as="geometry" />
        </mxCell>
        <mxCell id="YslVnldPY5_QTh7AHuWf-286" value="Matthew R." style="align=left;strokeColor=#DEEDFF" parent="1" vertex="1">
          <mxGeometry x="160.000000000001" y="152.12000000000364" width="149.99999999999898" height="20" as="geometry" />
        </mxCell>
        <mxCell id="YslVnldPY5_QTh7AHuWf-297" value="MAR" style="strokeColor=#DEEDFF" parent="1" vertex="1">
          <mxGeometry x="120.00000000000111" y="172.12000000000342" width="40" height="20" as="geometry" />
        </mxCell>
        <mxCell id="YslVnldPY5_QTh7AHuWf-298" value="Marco R." style="align=left;strokeColor=#DEEDFF" parent="1" vertex="1">
          <mxGeometry x="160.0000000000011" y="172.12000000000342" width="149.99999999999886" height="20" as="geometry" />
        </mxCell>
        <mxCell id="YslVnldPY5_QTh7AHuWf-299" value="MH" style="strokeColor=#DEEDFF" parent="1" vertex="1">
          <mxGeometry x="120.00000000000102" y="192.12000000000342" width="40" height="20" as="geometry" />
        </mxCell>
        <mxCell id="YslVnldPY5_QTh7AHuWf-300" value="Michael H." style="align=left;strokeColor=#DEEDFF" parent="1" vertex="1">
          <mxGeometry x="160.00000000000102" y="192.12000000000342" width="149.99999999999898" height="20" as="geometry" />
        </mxCell>
        <mxCell id="YslVnldPY5_QTh7AHuWf-301" value="AB" style="strokeColor=#DEEDFF" parent="1" vertex="1">
          <mxGeometry x="120.00000000000102" y="212.12000000000364" width="40" height="20" as="geometry" />
        </mxCell>
        <mxCell id="YslVnldPY5_QTh7AHuWf-302" value="Anthony B." style="align=left;strokeColor=#DEEDFF" parent="1" vertex="1">
          <mxGeometry x="160.000000000001" y="212.12000000000364" width="149.99999999999898" height="20" as="geometry" />
        </mxCell>
        <mxCell id="YslVnldPY5_QTh7AHuWf-303" value="AY" style="strokeColor=#DEEDFF" parent="1" vertex="1">
          <mxGeometry x="120.00000000000111" y="231.87000000000342" width="40" height="20" as="geometry" />
        </mxCell>
        <mxCell id="YslVnldPY5_QTh7AHuWf-304" value="Allen Y." style="align=left;strokeColor=#DEEDFF" parent="1" vertex="1">
          <mxGeometry x="160.0000000000011" y="231.87000000000342" width="149.99999999999886" height="20" as="geometry" />
        </mxCell>
        <mxCell id="YslVnldPY5_QTh7AHuWf-305" value="IL" style="strokeColor=#DEEDFF" parent="1" vertex="1">
          <mxGeometry x="120.00000000000102" y="251.87000000000342" width="40" height="20" as="geometry" />
        </mxCell>
        <mxCell id="YslVnldPY5_QTh7AHuWf-306" value="Isaiah L." style="align=left;strokeColor=#DEEDFF" parent="1" vertex="1">
          <mxGeometry x="160.00000000000102" y="251.87000000000342" width="149.99999999999898" height="20" as="geometry" />
        </mxCell>
        <mxCell id="YslVnldPY5_QTh7AHuWf-307" value="CM" style="strokeColor=#DEEDFF" parent="1" vertex="1">
          <mxGeometry x="120.00000000000102" y="271.87000000000364" width="40" height="20" as="geometry" />
        </mxCell>
        <mxCell id="YslVnldPY5_QTh7AHuWf-308" value="Carlos M." style="align=left;strokeColor=#DEEDFF" parent="1" vertex="1">
          <mxGeometry x="160.000000000001" y="271.87000000000364" width="149.99999999999898" height="20" as="geometry" />
        </mxCell>
        <mxCell id="YslVnldPY5_QTh7AHuWf-309" value="SC" style="strokeColor=#DEEDFF" parent="1" vertex="1">
          <mxGeometry x="120.00000000000111" y="291.8700000000034" width="40" height="20" as="geometry" />
        </mxCell>
        <mxCell id="YslVnldPY5_QTh7AHuWf-310" value="Stephen C." style="align=left;strokeColor=#DEEDFF" parent="1" vertex="1">
          <mxGeometry x="160.0000000000011" y="291.8700000000034" width="149.99999999999886" height="20" as="geometry" />
        </mxCell>
        <mxCell id="YslVnldPY5_QTh7AHuWf-311" value="" style="strokeColor=#DEEDFF" parent="1" vertex="1">
          <mxGeometry x="120.00000000000102" y="311.8700000000034" width="40" height="20" as="geometry" />
        </mxCell>
        <mxCell id="YslVnldPY5_QTh7AHuWf-312" value="" style="align=left;strokeColor=#DEEDFF" parent="1" vertex="1">
          <mxGeometry x="160.00000000000102" y="311.8700000000034" width="149.99999999999898" height="20" as="geometry" />
        </mxCell>
        <mxCell id="YslVnldPY5_QTh7AHuWf-313" value="" style="strokeColor=#DEEDFF" parent="1" vertex="1">
          <mxGeometry x="120.00000000000102" y="331.87000000000364" width="40" height="20" as="geometry" />
        </mxCell>
        <mxCell id="YslVnldPY5_QTh7AHuWf-314" value="" style="align=left;strokeColor=#DEEDFF" parent="1" vertex="1">
          <mxGeometry x="160.000000000001" y="331.87000000000364" width="149.99999999999898" height="20" as="geometry" />
        </mxCell>
        <mxCell id="YslVnldPY5_QTh7AHuWf-277" value="Initial" style="strokeColor=#6c8ebf;fillColor=#dae8fc;" parent="1" vertex="1">
          <mxGeometry x="120.00000000000102" y="72.12000000000364" width="40" height="20" as="geometry" />
        </mxCell>
        <mxCell id="YslVnldPY5_QTh7AHuWf-278" value="Name" style="align=left;strokeColor=#6c8ebf;fillColor=#dae8fc;" parent="1" vertex="1">
          <mxGeometry x="160.000000000001" y="72.12000000000364" width="149.99999999999898" height="20" as="geometry" />
        </mxCell>
        <mxCell id="uVJO5Seux2hrpMJE8Qfh-277" value="" style="shape=mxgraph.flowchart.process;fillColor=#9933FF;strokeColor=default;strokeWidth=2;opacity=75" parent="1" vertex="1">
          <mxGeometry x="526.5" y="460" width="53.5" height="20" as="geometry" />
        </mxCell>
        <mxCell id="uVJO5Seux2hrpMJE8Qfh-279" value="" style="shape=mxgraph.flowchart.process;fillColor=#9933FF;strokeColor=default;strokeWidth=2;opacity=75" parent="1" vertex="1">
          <mxGeometry x="580" y="480" width="90" height="20" as="geometry" />
        </mxCell>
        <mxCell id="uVJO5Seux2hrpMJE8Qfh-280" value="" style="shape=mxgraph.flowchart.process;fillColor=#9933FF;strokeColor=default;strokeWidth=2;opacity=75" parent="1" vertex="1">
          <mxGeometry x="670" y="500" width="140" height="20" as="geometry" />
        </mxCell>
        <mxCell id="uVJO5Seux2hrpMJE8Qfh-281" value="" style="shape=mxgraph.flowchart.process;fillColor=#9933FF;strokeColor=default;strokeWidth=2;opacity=75" parent="1" vertex="1">
          <mxGeometry x="810" y="520" width="140" height="20" as="geometry" />
        </mxCell>
        <mxCell id="uVJO5Seux2hrpMJE8Qfh-283" value="" style="shape=mxgraph.flowchart.process;fillColor=#9933FF;strokeColor=default;strokeWidth=2;opacity=75" parent="1" vertex="1">
          <mxGeometry x="950" y="540" width="140" height="20" as="geometry" />
        </mxCell>
        <mxCell id="uVJO5Seux2hrpMJE8Qfh-284" value="" style="shape=mxgraph.flowchart.process;fillColor=#9933FF;strokeColor=default;strokeWidth=2;opacity=75" parent="1" vertex="1">
          <mxGeometry x="1090" y="560" width="130" height="20" as="geometry" />
        </mxCell>
        <mxCell id="D92ohvfU5PdDfPwPjhh1-282" value="" style="rounded=0;whiteSpace=wrap;html=1;fillColor=#003300;" parent="1" vertex="1">
          <mxGeometry x="528" y="740" width="72" height="20" as="geometry" />
        </mxCell>
        <mxCell id="D92ohvfU5PdDfPwPjhh1-283" value="" style="rounded=0;whiteSpace=wrap;html=1;fillColor=#003300;" parent="1" vertex="1">
          <mxGeometry x="600" y="760" width="100" height="20" as="geometry" />
        </mxCell>
        <mxCell id="D92ohvfU5PdDfPwPjhh1-284" value="" style="rounded=0;whiteSpace=wrap;html=1;fillColor=#003300;" parent="1" vertex="1">
          <mxGeometry x="700" y="780" width="106.5" height="20" as="geometry" />
        </mxCell>
        <mxCell id="D92ohvfU5PdDfPwPjhh1-285" value="" style="rounded=0;whiteSpace=wrap;html=1;fillColor=#003300;" parent="1" vertex="1">
          <mxGeometry x="806.5" y="800" width="223.5" height="20" as="geometry" />
        </mxCell>
        <mxCell id="-Dfqq9dImMUQ_tp1cE9Q-291" value="" style="strokeColor=#DEEDFF;fillColor=#CCE5FF" parent="1" vertex="1">
          <mxGeometry x="526.5000000000011" y="720.0000000000023" width="700.0000000000002" height="19" as="geometry" />
        </mxCell>
        <mxCell id="-Dfqq9dImMUQ_tp1cE9Q-279" value="" style="shape=mxgraph.flowchart.process;fillColor=#AE4132;strokeColor=none;strokeWidth=2;opacity=50" parent="1" vertex="1">
          <mxGeometry x="1086.5" y="920" width="123.5" height="20" as="geometry" />
        </mxCell>
        <mxCell id="-Dfqq9dImMUQ_tp1cE9Q-290" value="" style="strokeColor=#DEEDFF;fillColor=#CCE5FF" parent="1" vertex="1">
          <mxGeometry x="525.0000000000011" y="860.0000000000023" width="700.0000000000002" height="20" as="geometry" />
        </mxCell>
        <mxCell id="-Dfqq9dImMUQ_tp1cE9Q-292" value="" style="strokeColor=#DEEDFF;fillColor=#CCE5FF" parent="1" vertex="1">
          <mxGeometry x="528.0000000000011" y="581.0000000000023" width="690.0000000000002" height="19" as="geometry" />
        </mxCell>
        <mxCell id="nvQM-AmTN6oQNDFuSGyY-264" value="" style="rounded=0;whiteSpace=wrap;html=1;fillColor=#f5f5f5;fontColor=#333333;strokeColor=#666666;" parent="1" vertex="1">
          <mxGeometry x="529.5" y="600" width="173.5" height="20" as="geometry" />
        </mxCell>
        <mxCell id="nvQM-AmTN6oQNDFuSGyY-265" value="" style="rounded=0;whiteSpace=wrap;html=1;fillColor=#f5f5f5;fontColor=#333333;strokeColor=#666666;" parent="1" vertex="1">
          <mxGeometry x="703" y="620" width="170" height="20" as="geometry" />
        </mxCell>
        <mxCell id="nvQM-AmTN6oQNDFuSGyY-266" value="" style="rounded=0;whiteSpace=wrap;html=1;fillColor=#f5f5f5;fontColor=#333333;strokeColor=#666666;" parent="1" vertex="1">
          <mxGeometry x="873" y="640" width="183.5" height="20" as="geometry" />
        </mxCell>
        <mxCell id="4W-sPy0pznqI8UiAaeZ8-422" value="" style="rounded=0;whiteSpace=wrap;html=1;fillColor=#003300;" parent="1" vertex="1">
          <mxGeometry x="1030" y="820" width="150" height="20" as="geometry" />
        </mxCell>
        <mxCell id="4W-sPy0pznqI8UiAaeZ8-423" value="" style="rounded=0;whiteSpace=wrap;html=1;fillColor=#003300;" parent="1" vertex="1">
          <mxGeometry x="1180" y="840" width="40" height="20" as="geometry" />
        </mxCell>
        <mxCell id="4W-sPy0pznqI8UiAaeZ8-424" value="" style="rounded=0;whiteSpace=wrap;html=1;fillColor=#f5f5f5;fontColor=#333333;strokeColor=#666666;" parent="1" vertex="1">
          <mxGeometry x="1050" y="660" width="100" height="20" as="geometry" />
        </mxCell>
        <mxCell id="4W-sPy0pznqI8UiAaeZ8-425" value="" style="rounded=0;whiteSpace=wrap;html=1;fillColor=#f5f5f5;fontColor=#333333;strokeColor=#666666;" parent="1" vertex="1">
          <mxGeometry x="1150" y="680" width="70" height="20" as="geometry" />
        </mxCell>
      </root>
    </mxGraphModel>
  </diagram>
</mxfile>
